<svg id="Capa_1" data-name="Capa 1" xmlns="http://www.w3.org/2000/svg" width="45" height="45" viewBox="0 0 45 45"><defs><style>.cls-1{fill:#33c4b6;}</style></defs><title>icon-web</title><path class="cls-1" d="M45,21A22.51,22.51,0,0,0,24,.05V0H21V.05A22.51,22.51,0,0,0,.05,21H0v3H.05A22.51,22.51,0,0,0,21,45v0h3v0A22.51,22.51,0,0,0,45,24h0V21ZM14.09,4.9A23.81,23.81,0,0,0,10.56,12H6.06A19.69,19.69,0,0,1,14.09,4.9ZM4.49,15H9.77A35.79,35.79,0,0,0,9,21h-6A19.37,19.37,0,0,1,4.49,15ZM3.06,24H9a35.79,35.79,0,0,0,.74,6H4.49A19.37,19.37,0,0,1,3.06,24Zm3,9h4.49a23.87,23.87,0,0,0,3.53,7.09A19.63,19.63,0,0,1,6.06,33ZM21,41.81C17.92,41,15.26,37.67,13.65,33H21ZM21,30H12.81A33.2,33.2,0,0,1,12,24h9Zm0-9H12a33.2,33.2,0,0,1,.78-6H21Zm0-9H13.65C15.26,7.33,17.92,4,21,3.2Zm17.94,0H34.45a24.05,24.05,0,0,0-3.53-7.1A19.73,19.73,0,0,1,38.94,12ZM24,3.2c3.08.82,5.74,4.13,7.35,8.8H24ZM24,15h8.19A33.2,33.2,0,0,1,33,21H24Zm0,9h9a33.2,33.2,0,0,1-.78,6H24Zm0,17.81V33h7.35C29.74,37.67,27.08,41,24,41.81Zm6.92-1.72A24.11,24.11,0,0,0,34.45,33h4.49A19.63,19.63,0,0,1,30.92,40.09ZM40.51,30H35.23A35.79,35.79,0,0,0,36,24h6A19.37,19.37,0,0,1,40.51,30ZM36,21a35.79,35.79,0,0,0-.74-6h5.28a19.37,19.37,0,0,1,1.43,6Z"/></svg>