<svg id="Layer_1" data-name="Layer 1" xmlns="http://www.w3.org/2000/svg" width="30" height="41.42" viewBox="0 0 30 41.42"><defs><style>.cls-1{fill:#fab409;}.cls-2{fill:#fff;}.cls-3{fill:#33c4b6;}</style></defs><title>icon-location-yellow</title><path class="cls-1" d="M30,15.29c0,10.27-13.42,25.33-14,26a1.34,1.34,0,0,1-2,0c-.58-.64-14-15.7-14-26a15,15,0,0,1,30,0Z" transform="translate(0 -0.29)"/><path class="cls-2" d="M23.39,15.29A8.39,8.39,0,1,1,15,6.9,8.39,8.39,0,0,1,23.39,15.29Z" transform="translate(0 -0.29)"/><path class="cls-3" d="M22.55,15.29A7.55,7.55,0,1,1,15,7.74,7.56,7.56,0,0,1,22.55,15.29Z" transform="translate(0 -0.29)"/></svg>