<svg id="Layer_1" data-name="Layer 1" xmlns="http://www.w3.org/2000/svg" width="600" height="181" viewBox="0 0 600 181"><defs><style>.cls-1{fill:#fff;}</style></defs><title>logo</title><path id="tapsie-t" class="cls-1" d="M126.06,40.79a91.44,91.44,0,0,0-25.19-3l-27.76.35Q69,45.61,64.62,53.71T56.4,69.56Q52.55,77.32,49.33,84t-5,11.14c-.18.35-.74,1.69-1.68,4a64.43,64.43,0,0,0-2.44,7.22,30.18,30.18,0,0,0-1.15,6.32c-.09,1.73.72,2.23,2.44,1.52l2.57-1.78c1.2-.83,2.48-1.76,3.85-2.77s2.7-2,4-3.11,2.44-2.08,3.47-3Q62,97.08,66.17,92.9t7.45-8q3.34-3.82,7.2-8.1t10-11a3.42,3.42,0,0,1,2.57-1.07,7.18,7.18,0,0,1,3,.63A5.33,5.33,0,0,1,98.56,67a2,2,0,0,1,0,2.32Q92.91,80,86,90.94a223.73,223.73,0,0,1-15.17,21.11,104.11,104.11,0,0,0-7.71,10.69,81.24,81.24,0,0,1-8.87,11.49,47.17,47.17,0,0,1-11.44,9.08,27.82,27.82,0,0,1-15.16,3.3,32.47,32.47,0,0,1-16.07-4.72,22,22,0,0,1-9.64-12.2A47.12,47.12,0,0,1,.74,108Q2.68,96.73,9.61,81.77l4.24-9.27Q16.3,67.16,19.25,61t6.43-12.73q3.46-6.6,7.32-13.19a102.06,102.06,0,0,1-16.19-5A6,6,0,0,1,14,28a2.61,2.61,0,0,1-.38-2.32A3.06,3.06,0,0,1,15.27,24a5.44,5.44,0,0,1,3.59-.09,68.46,68.46,0,0,0,10,1.69c3.25.3,6.43.51,9.51.63q4.37-7,8.61-12.92A105.75,105.75,0,0,1,55.37,2.85c1.2-1.31,3.47-1.72,6.81-1.25A30.54,30.54,0,0,1,72.21,5a27.94,27.94,0,0,1,8.48,6.86,9,9,0,0,1,1.93,9q7.18-1.07,14.65-1.69a133.67,133.67,0,0,1,16.2-.27,20.82,20.82,0,0,1,8.35,5.52A38,38,0,0,1,128,32.51a13.56,13.56,0,0,1,2.06,6.77C130,41.12,128.64,41.63,126.06,40.79Z" transform="translate(0)"/><path id="tapsie-a" class="cls-1" d="M170,49.34c.69-.47,2.48-.44,5.4.09a36.17,36.17,0,0,1,9,3,20.53,20.53,0,0,1,7.45,5.88q2.83,3.66.77,8.64-2.31,3.73-4.49,6.86T184,80c-1.28,2-2.57,4.25-3.85,6.68s-2.62,5.26-4,8.47c-.17.35-.68,1.69-1.54,4s-1.67,4.73-2.44,7.22a22.13,22.13,0,0,0-1.16,6.32c0,1.73.77,2.23,2.31,1.52a28.83,28.83,0,0,0,2.83-1.78c1.2-.83,2.48-1.76,3.86-2.77s2.7-2,4-3.11,2.45-2.08,3.47-3q6.69-6.42,10.67-10.6t7.33-8c2.22-2.55,4.63-5.25,7.2-8.1s6-6.53,10.28-11a3.42,3.42,0,0,1,2.57-1.07,6.35,6.35,0,0,1,2.83.63A5.43,5.43,0,0,1,230.43,67a1.92,1.92,0,0,1,0,2.32Q225,80,218.09,90.94a223.62,223.62,0,0,1-15.16,21.11,104.11,104.11,0,0,0-7.71,10.69,82,82,0,0,1-8.87,11.49,47.37,47.37,0,0,1-11.44,9.08,27.88,27.88,0,0,1-15.17,3.3q-9-.36-14.65-5.17a25.57,25.57,0,0,1-8-12.47,45.66,45.66,0,0,1-1.8-8.9,61.38,61.38,0,0,1-.26-9.8q-3.34,6.24-7.07,12.56a70.25,70.25,0,0,1-8.23,11.31,44.31,44.31,0,0,1-9.51,8.1,20.27,20.27,0,0,1-10.92,3.12,25.22,25.22,0,0,1-11.7-2.58,26.46,26.46,0,0,1-8.35-6.59,34.77,34.77,0,0,1-5.4-8.91,43.11,43.11,0,0,1-2.83-9.35,43.65,43.65,0,0,1,.39-17.28,78.08,78.08,0,0,1,6.17-18.08A77.27,77.27,0,0,1,88,66.36a58,58,0,0,1,13.11-11.85,53.89,53.89,0,0,1,11.18-5.17A45.43,45.43,0,0,1,127,46.76a31.17,31.17,0,0,1,14.53,3.39q6.93,3.47,11,12.91v.54a82.57,82.57,0,0,1,8-7.58A72,72,0,0,1,170,49.34Zm-68.38,69.83c1.54.12,3.86-1,6.94-3.29A104.85,104.85,0,0,0,119,106.71a173.93,173.93,0,0,0,12-13.19Q137.12,86,142.77,78c.52-.94,1-1.89,1.55-2.85a28.33,28.33,0,0,1,1.79-2.85c.86-2.73.43-4.86-1.28-6.41a10,10,0,0,0-6.43-2.49q-4.11,0-9,4a57.27,57.27,0,0,0-9.52,10.24,134.24,134.24,0,0,0-8.74,13.45,138.76,138.76,0,0,0-6.81,13.45,58.34,58.34,0,0,0-3.6,10.42Q99.84,119.18,101.64,119.17Z" transform="translate(0)"/><path id="tapsie-p" class="cls-1" d="M216.55,175.11c-2.06,3.32-4.76,5.23-8.1,5.7a17.86,17.86,0,0,1-9.64-1.25,17.31,17.31,0,0,1-7.45-5.87,9.62,9.62,0,0,1-1.8-8.2q4.89-15.68,8.74-29.93t8.1-27.88q4.23-13.62,9.25-27.07a242.48,242.48,0,0,1,12.47-27.7Q232,47,237.5,45.25a19.19,19.19,0,0,1,10.8-.45,18.6,18.6,0,0,1,9.12,5.43,15.78,15.78,0,0,1,4.37,9.62,43.65,43.65,0,0,1,9.64-8.55,20.84,20.84,0,0,1,11.44-3.38q13.63,0,22,5.52T316,70.72a28.23,28.23,0,0,1,.25,11.4,49.88,49.88,0,0,1-3.85,12.29q9-7.29,17.22-14.78t17.23-15a3.39,3.39,0,0,1,2.7-.71,6.32,6.32,0,0,1,3,1.07,6.22,6.22,0,0,1,1.93,2,1.74,1.74,0,0,1-.39,2.23q-6.16,6.4-13.75,14.34T324.39,99.85q-8.36,8.28-17.48,16.21a228.42,228.42,0,0,1-18.25,14.34,126,126,0,0,1-18.12,10.69,53.82,53.82,0,0,1-17.23,5.16,7.77,7.77,0,0,1-2.57,0c-1.71-.23-3.08-.47-4.11-.71a23.84,23.84,0,0,1-9.39-4.19,21.53,21.53,0,0,1-5.52-6.5q-2.07,4.82-4.5,11.22t-4.63,12.38q-2.19,6-4,10.69A55.81,55.81,0,0,0,216.55,175.11ZM283.13,61.64q-5.4-.54-10.92,3.83a57.6,57.6,0,0,0-10.67,11.4,165.92,165.92,0,0,0-10,15.58q-4.89,8.55-8.74,16.21a45.88,45.88,0,0,0-1.8,4.28,32,32,0,0,1-1.8,4.1c-.34,1.9,0,3.15,1.16,3.74a10.09,10.09,0,0,0,4,1.07c2.23.24,4.84-.54,7.85-2.32a50.47,50.47,0,0,0,9.25-7.3,106.74,106.74,0,0,0,9.38-10.51A110.27,110.27,0,0,0,279,89.78a84.22,84.22,0,0,0,5.91-11.84,33.31,33.31,0,0,0,2.57-10.07C287.84,63.72,286.39,61.64,283.13,61.64Z" transform="translate(0)"/><path id="tapsie-s" class="cls-1" d="M399.07,63.42a7.22,7.22,0,0,1-1.93,5.43,8.3,8.3,0,0,1-4.24,2.32,6.1,6.1,0,0,1-4.24-.63A3.74,3.74,0,0,1,386.73,67c1-.71,1.41-1.48,1.16-2.32a4.78,4.78,0,0,0-1.55-2.22,8.13,8.13,0,0,0-2.95-1.52,6.52,6.52,0,0,0-3.34-.17,6.88,6.88,0,0,0-5.27,4.72,18.17,18.17,0,0,0-.9,7,18.85,18.85,0,0,0,2.57,6.86,87.15,87.15,0,0,0,5.65,8.82q8.75-5,17.1-9.71t15.55-8.73q7.2-4,12.34-7t7.45-4.63a4.22,4.22,0,0,1,2.7-.17,6.53,6.53,0,0,1,2.45,1.15,4.38,4.38,0,0,1,1.41,1.78,2.05,2.05,0,0,1-.39,2.05,265.34,265.34,0,0,1-23.9,19.87q-13.11,9.7-24.94,19.15,2.31,3.55,4,6.68a32.93,32.93,0,0,1,2.44,5.61A22.71,22.71,0,0,1,395,133.78q-6.18,8.91-19.8,13.9a46.21,46.21,0,0,1-17.74,3.2,42.89,42.89,0,0,1-14-2.76,27.71,27.71,0,0,1-9.77-6.23,18.09,18.09,0,0,1-4.75-7.57q-1.54-5.17,6.17-12.92a144.82,144.82,0,0,1,20.05-16.3,105.7,105.7,0,0,1-10.28-17.63Q340.45,78,341.23,70q.25-2.31,2.83-6.15a36.59,36.59,0,0,1,7.06-7.57,48.44,48.44,0,0,1,10.67-6.59,36.94,36.94,0,0,1,13.89-3.21,38.1,38.1,0,0,1,8.61.63,21.9,21.9,0,0,1,7.45,2.76A16,16,0,0,1,397,55.13,15.42,15.42,0,0,1,399.07,63.42Zm-30.34,59a96.8,96.8,0,0,1-9.64,7.13q-4,2.49-2.18,3.92a9.43,9.43,0,0,0,6.68,3.2,10.53,10.53,0,0,0,6.43-1.51,6.89,6.89,0,0,0,3.08-4.9c.35-2.14-.77-4.51-3.34-7.13Z" transform="translate(0)"/><path id="tapsie-i" class="cls-1" d="M434,49.7c.85-1.18,2.48-1.9,4.88-2.14a27.69,27.69,0,0,1,7.84.45,45.3,45.3,0,0,1,8.62,2.58A33,33,0,0,1,463.08,55,17,17,0,0,1,468,60.57,7,7,0,0,1,468,67q-2.31,3.73-4.37,6.86t-4,6.14c-1.29,2-2.57,4.25-3.86,6.68s-2.61,5.26-4,8.47a22.35,22.35,0,0,1-1.42,4q-1.41,3.48-2.57,7.22a22.07,22.07,0,0,0-1.15,6.32c0,1.73.77,2.23,2.31,1.52a30.08,30.08,0,0,0,2.83-1.78c1.19-.83,2.48-1.76,3.85-2.77s2.7-2,4-3.11,2.44-2.08,3.47-3q6.68-6.42,10.79-10.6t7.46-8q3.35-3.82,7.2-8.1t10-11a3.45,3.45,0,0,1,2.57-1.07,7.19,7.19,0,0,1,3,.63A5.33,5.33,0,0,1,506.27,67a2,2,0,0,1,0,2.32Q500.6,80,493.54,90.94a240.55,240.55,0,0,1-15.3,21.11q-3.6,4.64-7.45,10.69a81.24,81.24,0,0,1-8.87,11.49,47.17,47.17,0,0,1-11.44,9.08,27.84,27.84,0,0,1-15.17,3.3q-9-.36-14.52-5.17A26.09,26.09,0,0,1,413,129,50.11,50.11,0,0,1,411,117.84a64.29,64.29,0,0,1,.39-12.2,98,98,0,0,1,2.31-12.3,114.24,114.24,0,0,1,3.6-11.57,137.21,137.21,0,0,1,6.43-16.13A82.83,82.83,0,0,1,434,49.7Zm16.19-35.27a31,31,0,0,1,5.53-7.66,24.56,24.56,0,0,1,7.07-5,18.92,18.92,0,0,1,8-1.78,17.35,17.35,0,0,1,8,2A17.21,17.21,0,0,1,485.19,7a21.49,21.49,0,0,1,3.72,7.3,23.4,23.4,0,0,1,.77,8.55,26.63,26.63,0,0,1-2.44,9Q482.88,41,474.52,44.53a18.57,18.57,0,0,1-16.07-.17A17.21,17.21,0,0,1,452,39.28a21.37,21.37,0,0,1-3.72-7.39,22.36,22.36,0,0,1-.65-8.64A27.51,27.51,0,0,1,450.22,14.43Z" transform="translate(0)"/><path id="tapsie-e" class="cls-1" d="M529.14,111a20.4,20.4,0,0,1-8.87,1.87,21,21,0,0,1-7.84-1.51v.17a45,45,0,0,0,.26,4.73,13.69,13.69,0,0,0,1.29,4.54,12.81,12.81,0,0,0,2.57,3.65,9.35,9.35,0,0,0,4.37,2.23q4.11.89,10.41-2.5a79.52,79.52,0,0,0,13.37-9.35q7.06-6,14.52-13.36t14-14.43q6.56-7,11.57-12.91t7.58-8.56a3.15,3.15,0,0,1,2.57-1,8.55,8.55,0,0,1,2.83.62,4.34,4.34,0,0,1,1.93,1.42,1.1,1.1,0,0,1-.13,1.61q-1.55,2.13-5.78,8.9T583.26,92.72q-6.32,8.82-14.27,18.53a152,152,0,0,1-17,17.63,97.76,97.76,0,0,1-18.51,13,37.15,37.15,0,0,1-19,4.72q-13.37-.54-21.47-5.17a30.87,30.87,0,0,1-12.08-11.84,34.32,34.32,0,0,1-4.11-16.3,55.84,55.84,0,0,1,3-18.44,75.84,75.84,0,0,1,9-18.26,78.65,78.65,0,0,1,13.63-15.68A63.56,63.56,0,0,1,519.5,50.15a45.47,45.47,0,0,1,19.67-3.66q7.19.36,11.57,3.48a21.2,21.2,0,0,1,6.55,7.21,26,26,0,0,1,2.83,8.55,34.44,34.44,0,0,1,.39,7.48,40.29,40.29,0,0,1-3.35,11.67,48,48,0,0,1-6.68,10.6,51,51,0,0,1-9.51,8.91A58.08,58.08,0,0,1,529.14,111ZM542,65.2c-1.2-.36-3.18.42-5.92,2.31a54.21,54.21,0,0,0-8.74,7.93,70.17,70.17,0,0,0-8.61,11.94,47.23,47.23,0,0,0-5.53,14.52,2.76,2.76,0,0,0,2.58.17A19.54,19.54,0,0,0,525,97.44a43.84,43.84,0,0,0,7.58-8.37,75.34,75.34,0,0,0,5.53-9.26,72.34,72.34,0,0,0,3.34-7.49,33.9,33.9,0,0,0,1-3.91,13.58,13.58,0,0,0,.26-2c0-.42-.09-.69-.26-.81S542.16,65.32,542,65.2Z" transform="translate(0)"/></svg>